<svg xmlns="http://www.w3.org/2000/svg" version="1.1" width="512" height="512" viewBox="0 0 135.46667 135.46667" id="svg1" xmlns:svg="http://www.w3.org/2000/svg"><metadata><rdf:RDF xmlns:rdf="http://www.w3.org/1999/02/22-rdf-syntax-ns#" xmlns:dc="http://purl.org/dc/elements/1.1/"><rdf:Description><dc:creator>RealFaviconGenerator</dc:creator><dc:source>https://realfavicongenerator.net</dc:source></rdf:Description></rdf:RDF></metadata><defs id="defs1"></defs><g id="layer1" transform="translate(-0.89449078,-1.9124874)">
    <g id="g6">
      <rect style="fill:#184353;fill-opacity:1;stroke:#ffffff;stroke-width:0" id="rect3" width="135.46667" height="135.46667" x="0.89448839" y="1.912485" ry="27.533539" rx="27.533539"></rect>
      <path d="m 79.477293,55.358839 c -0.432526,0 -0.839473,0.08249 -1.221114,0.248047 -0.368919,0.152819 -0.693714,0.369404 -0.973584,0.649572 -0.267149,0.280169 -0.476763,0.604788 -0.629419,0.974101 -0.152656,0.369314 -0.228927,0.764171 -0.228927,1.184424 0,0.420253 0.07627,0.815111 0.228927,1.184424 0.152656,0.369313 0.36227,0.693932 0.629419,0.974101 0.27987,0.267433 0.604665,0.484018 0.973584,0.649572 0.381641,0.15282 0.788588,0.229444 1.221114,0.229444 0.432526,0 0.833075,-0.07662 1.201994,-0.229444 0.368919,-0.165554 0.687315,-0.382139 0.954464,-0.649572 0.279869,-0.280169 0.495883,-0.604788 0.648539,-0.974101 0.152656,-0.369313 0.228926,-0.764171 0.228926,-1.184424 0,-0.420253 -0.07627,-0.81511 -0.228926,-1.184424 -0.152656,-0.369313 -0.36867,-0.693932 -0.648539,-0.974101 -0.267149,-0.280168 -0.585545,-0.496753 -0.954464,-0.649572 -0.368919,-0.165555 -0.769468,-0.248047 -1.201994,-0.248047 z M 50.39638,56.141737 v 3.629752 h 5.476668 v 19.732647 h -6.144844 v 3.629752 H 66.234173 V 79.504136 H 60.6433 V 56.141737 Z M 18.796241,61.891774 5.9350101,72.722637 18.796241,83.573138 21.77332,80.554718 12.308265,72.684397 21.77332,64.910194 Z m 99.302989,0 -2.95745,3.01842 9.44542,7.850684 -9.44542,7.79384 2.95745,3.01842 12.86123,-10.850501 z m -16.71578,1.41335 c -1.412071,0 -2.646227,0.153248 -3.7021,0.458887 -1.055872,0.305638 -1.939638,0.72552 -2.652034,1.260388 -0.699675,0.522133 -1.227685,1.133575 -1.583883,1.833997 -0.356198,0.700421 -0.534334,1.445439 -0.534334,2.235005 0,0.815034 0.114664,1.528127 0.343648,2.139405 0.241706,0.598549 0.597462,1.126975 1.068152,1.585433 0.47069,0.458458 1.062689,0.859707 1.775085,1.203544 0.725118,0.331108 1.564608,0.630179 2.51871,0.897619 1.03043,0.292897 1.863516,0.560565 2.499586,0.802535 0.63607,0.229229 1.12569,0.458585 1.46916,0.687814 0.3562,0.216487 0.59833,0.445326 0.72554,0.687296 0.12721,0.241957 0.19069,0.509625 0.19069,0.802535 0,0.624006 -0.3056,1.133283 -0.91623,1.528073 -0.5979,0.382048 -1.50726,0.573091 -2.728512,0.573091 -1.055872,0 -2.181764,-0.108027 -3.377572,-0.324528 -1.183086,-0.229229 -2.37245,-0.592166 -3.568257,-1.088822 v 4.202327 c 1.017708,0.254699 2.098807,0.445743 3.243729,0.573092 1.144922,0.140077 2.429754,0.210323 3.854542,0.210323 1.0686,0 2.11182,-0.114936 3.12953,-0.344165 1.03043,-0.216487 1.94671,-0.566654 2.74815,-1.050582 0.81417,-0.496669 1.46272,-1.133136 1.94614,-1.909961 0.49613,-0.789566 0.74414,-1.738391 0.74414,-2.846338 0,-0.751355 -0.10187,-1.419755 -0.30541,-2.005562 -0.20354,-0.585808 -0.54062,-1.108372 -1.01131,-1.56683 -0.45797,-0.458458 -1.06865,-0.865569 -1.83193,-1.222147 -0.76328,-0.36932 -1.70464,-0.713612 -2.82412,-1.031979 -0.99226,-0.280168 -1.79336,-0.534549 -2.40398,-0.763777 -0.597907,-0.241971 -1.068844,-0.471327 -1.412321,-0.687814 -0.330755,-0.216501 -0.553167,-0.439467 -0.667659,-0.668693 -0.114492,-0.229229 -0.172083,-0.489994 -0.172083,-0.782898 0,-0.611277 0.286402,-1.089144 0.858863,-1.432987 0.585182,-0.343844 1.3548,-0.515731 2.3089,-0.515731 0.9541,0 1.91466,0.07662 2.88148,0.229443 0.97955,0.140085 2.02277,0.388079 3.12953,0.744658 v -3.801319 c -0.72512,-0.152819 -1.55873,-0.29278 -2.50011,-0.420129 -0.94138,-0.12735 -2.02248,-0.191203 -3.24373,-0.191203 z M 28.089214,63.72577 v 13.027629 c 0,1.031524 0.121063,1.967591 0.362769,2.808097 0.254427,0.827778 0.629896,1.540869 1.126029,2.139405 0.496133,0.598549 1.112694,1.063638 1.850533,1.394747 0.75056,0.318367 1.622045,0.47749 2.614311,0.47749 0.699674,0 1.33595,-0.08302 1.908411,-0.248564 0.585182,-0.152819 1.119591,-0.369404 1.603003,-0.649572 0.496132,-0.292911 0.953754,-0.643064 1.373559,-1.050582 0.419805,-0.407518 0.833151,-0.859334 1.240235,-1.35599 l 0.114721,2.865458 h 4.026111 V 63.72577 h -4.656047 v 12.282455 c -0.801445,1.095205 -1.564665,1.967922 -2.289782,2.617411 -0.712396,0.636747 -1.456419,0.954981 -2.232422,0.954981 -0.801446,0 -1.399327,-0.267668 -1.793689,-0.802535 -0.394362,-0.54761 -0.591695,-1.349578 -0.591695,-2.406572 V 63.72577 Z m 43.793194,0 v 3.629236 h 5.476668 v 12.14913 h -6.144328 v 3.629752 h 16.50597 V 79.504136 H 82.129844 V 63.72577 Z" style="font-weight:bold;font-size:192px;font-family:Consolas;-inkscape-font-specification:'Consolas, Bold';white-space:pre;fill:#ffffff;stroke:#ffffff;stroke-width:0" id="path6"></path>
    </g>
  </g></svg>